<svg width="37" height="37" viewBox="0 0 37 37" fill="none" xmlns="http://www.w3.org/2000/svg">
<path d="M32.5342 13.7357L21.5654 12.8919L23.1826 6.60597C23.6045 4.73566 23.1278 3.66198 21.6027 3.18878L19.1636 2.4962C19.1058 2.4809 19.0447 2.48438 18.9891 2.50612C18.9335 2.52786 18.8862 2.56675 18.8542 2.61714L9.78387 16.8442C9.73356 16.926 9.66315 16.9936 9.57933 17.0405C9.49551 17.0874 9.40108 17.112 9.30504 17.1121H1.59668V31.7357H9.86613C10.2289 31.7356 10.5893 31.794 10.9335 31.9086L16.2983 33.6967C16.8719 33.888 17.4726 33.9856 18.0772 33.9857H30.5879C31.9239 33.9857 32.8028 33.035 33.065 31.7244L35.3467 21.7217V16.5482C35.3467 14.9971 34.0811 13.8763 32.5342 13.7357Z" fill="#3F950D"/>
</svg>
