<svg width="268" height="74" viewBox="0 0 268 74" fill="none" xmlns="http://www.w3.org/2000/svg">
<path d="M0.5 0.5H267.5V54C267.5 64.7695 258.77 73.5 248 73.5H20C9.23045 73.5 0.5 64.7695 0.5 54V0.5Z" stroke="black"/>
<path d="M57.402 34.319H62.893V36.92H57.402V34.319ZM57.64 41H54.274V29.1H63.607V31.701H57.64V41ZM69.453 41.153C68.4443 41.153 67.549 40.949 66.767 40.541C65.985 40.133 65.3673 39.572 64.914 38.858C64.472 38.1327 64.251 37.3053 64.251 36.376C64.251 35.4467 64.472 34.625 64.914 33.911C65.3673 33.197 65.985 32.6417 66.767 32.245C67.549 31.837 68.4443 31.633 69.453 31.633C70.4617 31.633 71.357 31.837 72.139 32.245C72.9323 32.6417 73.55 33.197 73.992 33.911C74.434 34.625 74.655 35.4467 74.655 36.376C74.655 37.3053 74.434 38.1327 73.992 38.858C73.55 39.572 72.9323 40.133 72.139 40.541C71.357 40.949 70.4617 41.153 69.453 41.153ZM69.453 38.586C69.827 38.586 70.1557 38.501 70.439 38.331C70.7337 38.161 70.966 37.9117 71.136 37.583C71.306 37.243 71.391 36.8407 71.391 36.376C71.391 35.9113 71.306 35.5203 71.136 35.203C70.966 34.8743 70.7337 34.625 70.439 34.455C70.1557 34.285 69.827 34.2 69.453 34.2C69.0903 34.2 68.7617 34.285 68.467 34.455C68.1837 34.625 67.9513 34.8743 67.77 35.203C67.6 35.5203 67.515 35.9113 67.515 36.376C67.515 36.8407 67.6 37.243 67.77 37.583C67.9513 37.9117 68.1837 38.161 68.467 38.331C68.7617 38.501 69.0903 38.586 69.453 38.586ZM76.1513 41V31.786H79.2283V34.472L78.7693 33.707C79.0413 33.0157 79.4833 32.5 80.0953 32.16C80.7073 31.8087 81.4496 31.633 82.3223 31.633V34.54C82.1749 34.5173 82.0446 34.506 81.9313 34.506C81.8293 34.4947 81.7159 34.489 81.5913 34.489C80.9339 34.489 80.4013 34.6703 79.9933 35.033C79.5853 35.3843 79.3813 35.9623 79.3813 36.767V41H76.1513ZM87.5644 41.153C86.8164 41.153 86.142 41.0057 85.5414 40.711C84.952 40.4163 84.4874 39.9573 84.1474 39.334C83.8187 38.6993 83.6544 37.9003 83.6544 36.937V31.786H86.8844V36.41C86.8844 37.124 87.0147 37.634 87.2754 37.94C87.5474 38.246 87.927 38.399 88.4144 38.399C88.7317 38.399 89.0207 38.3253 89.2814 38.178C89.542 38.0307 89.7517 37.7983 89.9104 37.481C90.069 37.1523 90.1484 36.733 90.1484 36.223V31.786H93.3784V41H90.3014V38.399L90.8964 39.13C90.579 39.81 90.12 40.32 89.5194 40.66C88.9187 40.9887 88.267 41.153 87.5644 41.153ZM107.461 31.633C108.175 31.633 108.81 31.7803 109.365 32.075C109.932 32.3583 110.374 32.8003 110.691 33.401C111.02 34.0017 111.184 34.778 111.184 35.73V41H107.954V36.257C107.954 35.5997 107.829 35.1237 107.58 34.829C107.331 34.523 106.991 34.37 106.56 34.37C106.254 34.37 105.976 34.4437 105.727 34.591C105.478 34.7383 105.285 34.965 105.149 35.271C105.013 35.5657 104.945 35.951 104.945 36.427V41H101.715V36.257C101.715 35.5997 101.59 35.1237 101.341 34.829C101.103 34.523 100.763 34.37 100.321 34.37C100.004 34.37 99.7202 34.4437 99.4709 34.591C99.2329 34.7383 99.0402 34.965 98.8929 35.271C98.7569 35.5657 98.6889 35.951 98.6889 36.427V41H95.4589V31.786H98.5359V34.353L97.9239 33.622C98.2639 32.9647 98.7285 32.4717 99.3179 32.143C99.9072 31.803 100.565 31.633 101.29 31.633C102.117 31.633 102.843 31.8483 103.466 32.279C104.101 32.6983 104.526 33.3557 104.741 34.251L103.687 34.03C104.016 33.282 104.509 32.6983 105.166 32.279C105.835 31.8483 106.6 31.633 107.461 31.633ZM124.256 41.238C123.315 41.238 122.442 41.0907 121.638 40.796C120.844 40.49 120.153 40.0593 119.564 39.504C118.986 38.9487 118.532 38.297 118.204 37.549C117.875 36.7897 117.711 35.9567 117.711 35.05C117.711 34.1433 117.875 33.316 118.204 32.568C118.532 31.8087 118.986 31.1513 119.564 30.596C120.153 30.0407 120.844 29.6157 121.638 29.321C122.442 29.015 123.315 28.862 124.256 28.862C125.355 28.862 126.335 29.0547 127.197 29.44C128.069 29.8253 128.795 30.3807 129.373 31.106L127.231 33.044C126.845 32.5907 126.42 32.245 125.956 32.007C125.502 31.769 124.992 31.65 124.426 31.65C123.938 31.65 123.491 31.7293 123.083 31.888C122.675 32.0467 122.323 32.279 122.029 32.585C121.745 32.8797 121.519 33.2367 121.349 33.656C121.19 34.0753 121.111 34.54 121.111 35.05C121.111 35.56 121.19 36.0247 121.349 36.444C121.519 36.8633 121.745 37.226 122.029 37.532C122.323 37.8267 122.675 38.0533 123.083 38.212C123.491 38.3707 123.938 38.45 124.426 38.45C124.992 38.45 125.502 38.331 125.956 38.093C126.42 37.855 126.845 37.5093 127.231 37.056L129.373 38.994C128.795 39.708 128.069 40.2633 127.197 40.66C126.335 41.0453 125.355 41.238 124.256 41.238ZM136.314 41V39.283L136.093 38.858V35.696C136.093 35.186 135.935 34.795 135.617 34.523C135.311 34.2397 134.818 34.098 134.138 34.098C133.696 34.098 133.249 34.1717 132.795 34.319C132.342 34.455 131.957 34.6477 131.639 34.897L130.551 32.704C131.073 32.364 131.696 32.1033 132.421 31.922C133.158 31.7293 133.889 31.633 134.614 31.633C136.11 31.633 137.266 31.9787 138.082 32.67C138.91 33.35 139.323 34.421 139.323 35.883V41H136.314ZM133.594 41.153C132.858 41.153 132.234 41.0283 131.724 40.779C131.214 40.5297 130.823 40.1897 130.551 39.759C130.291 39.3283 130.16 38.8467 130.16 38.314C130.16 37.7473 130.302 37.26 130.585 36.852C130.88 36.4327 131.328 36.1153 131.928 35.9C132.529 35.6733 133.305 35.56 134.257 35.56H136.433V37.243H134.699C134.178 37.243 133.81 37.328 133.594 37.498C133.39 37.668 133.288 37.8947 133.288 38.178C133.288 38.4613 133.396 38.688 133.611 38.858C133.827 39.028 134.121 39.113 134.495 39.113C134.847 39.113 135.164 39.028 135.447 38.858C135.742 38.6767 135.957 38.4047 136.093 38.042L136.535 39.232C136.365 39.8667 136.031 40.3483 135.532 40.677C135.045 40.9943 134.399 41.153 133.594 41.153ZM145.476 41.153C144.298 41.153 143.38 40.864 142.722 40.286C142.065 39.6967 141.736 38.8127 141.736 37.634V29.729H144.966V37.6C144.966 37.9287 145.057 38.1893 145.238 38.382C145.42 38.5633 145.652 38.654 145.935 38.654C146.321 38.654 146.649 38.5577 146.921 38.365L147.72 40.626C147.448 40.8073 147.114 40.9377 146.717 41.017C146.321 41.1077 145.907 41.153 145.476 41.153ZM140.393 34.54V32.126H147.074V34.54H140.393ZM153.528 41.153C152.44 41.153 151.488 40.949 150.672 40.541C149.867 40.1217 149.238 39.555 148.785 38.841C148.343 38.1157 148.122 37.294 148.122 36.376C148.122 35.458 148.337 34.642 148.768 33.928C149.21 33.2027 149.816 32.6417 150.587 32.245C151.358 31.837 152.225 31.633 153.188 31.633C154.095 31.633 154.922 31.82 155.67 32.194C156.418 32.5567 157.013 33.095 157.455 33.809C157.897 34.523 158.118 35.39 158.118 36.41C158.118 36.5233 158.112 36.6537 158.101 36.801C158.09 36.9483 158.078 37.0843 158.067 37.209H150.774V35.509H156.35L155.126 35.985C155.137 35.5657 155.058 35.203 154.888 34.897C154.729 34.591 154.503 34.353 154.208 34.183C153.925 34.013 153.59 33.928 153.205 33.928C152.82 33.928 152.48 34.013 152.185 34.183C151.902 34.353 151.681 34.5967 151.522 34.914C151.363 35.22 151.284 35.5827 151.284 36.002V36.495C151.284 36.9483 151.375 37.3393 151.556 37.668C151.749 37.9967 152.021 38.2517 152.372 38.433C152.723 38.603 153.143 38.688 153.63 38.688C154.083 38.688 154.469 38.6257 154.786 38.501C155.115 38.365 155.438 38.161 155.755 37.889L157.455 39.657C157.013 40.1443 156.469 40.5183 155.823 40.779C155.177 41.0283 154.412 41.153 153.528 41.153ZM164.112 44.451C163.228 44.451 162.384 44.349 161.579 44.145C160.786 43.941 160.106 43.6407 159.539 43.244L160.712 40.983C161.098 41.289 161.574 41.527 162.14 41.697C162.718 41.8783 163.279 41.969 163.823 41.969C164.696 41.969 165.325 41.7763 165.71 41.391C166.096 41.017 166.288 40.4673 166.288 39.742V38.654L166.458 36.07L166.441 33.469V31.786H169.518V39.317C169.518 41.0623 169.048 42.3543 168.107 43.193C167.167 44.0317 165.835 44.451 164.112 44.451ZM163.551 40.524C162.735 40.524 161.982 40.3427 161.29 39.98C160.61 39.606 160.061 39.0903 159.641 38.433C159.233 37.7643 159.029 36.9767 159.029 36.07C159.029 35.1633 159.233 34.3813 159.641 33.724C160.061 33.0553 160.61 32.5397 161.29 32.177C161.982 31.8143 162.735 31.633 163.551 31.633C164.333 31.633 165.002 31.7917 165.557 32.109C166.113 32.415 166.532 32.8967 166.815 33.554C167.11 34.2113 167.257 35.05 167.257 36.07C167.257 37.09 167.11 37.9287 166.815 38.586C166.532 39.2433 166.113 39.7307 165.557 40.048C165.002 40.3653 164.333 40.524 163.551 40.524ZM164.316 37.957C164.702 37.957 165.042 37.8777 165.336 37.719C165.642 37.5603 165.88 37.3393 166.05 37.056C166.232 36.7727 166.322 36.444 166.322 36.07C166.322 35.696 166.232 35.3673 166.05 35.084C165.88 34.8007 165.642 34.5853 165.336 34.438C165.042 34.2793 164.702 34.2 164.316 34.2C163.931 34.2 163.585 34.2793 163.279 34.438C162.973 34.5853 162.73 34.8007 162.548 35.084C162.378 35.3673 162.293 35.696 162.293 36.07C162.293 36.444 162.378 36.7727 162.548 37.056C162.73 37.3393 162.973 37.5603 163.279 37.719C163.585 37.8777 163.931 37.957 164.316 37.957ZM176.218 41.153C175.209 41.153 174.314 40.949 173.532 40.541C172.75 40.133 172.132 39.572 171.679 38.858C171.237 38.1327 171.016 37.3053 171.016 36.376C171.016 35.4467 171.237 34.625 171.679 33.911C172.132 33.197 172.75 32.6417 173.532 32.245C174.314 31.837 175.209 31.633 176.218 31.633C177.226 31.633 178.122 31.837 178.904 32.245C179.697 32.6417 180.315 33.197 180.757 33.911C181.199 34.625 181.42 35.4467 181.42 36.376C181.42 37.3053 181.199 38.1327 180.757 38.858C180.315 39.572 179.697 40.133 178.904 40.541C178.122 40.949 177.226 41.153 176.218 41.153ZM176.218 38.586C176.592 38.586 176.92 38.501 177.204 38.331C177.498 38.161 177.731 37.9117 177.901 37.583C178.071 37.243 178.156 36.8407 178.156 36.376C178.156 35.9113 178.071 35.5203 177.901 35.203C177.731 34.8743 177.498 34.625 177.204 34.455C176.92 34.285 176.592 34.2 176.218 34.2C175.855 34.2 175.526 34.285 175.232 34.455C174.948 34.625 174.716 34.8743 174.535 35.203C174.365 35.5203 174.28 35.9113 174.28 36.376C174.28 36.8407 174.365 37.243 174.535 37.583C174.716 37.9117 174.948 38.161 175.232 38.331C175.526 38.501 175.855 38.586 176.218 38.586ZM182.916 41V31.786H185.993V34.472L185.534 33.707C185.806 33.0157 186.248 32.5 186.86 32.16C187.472 31.8087 188.214 31.633 189.087 31.633V34.54C188.94 34.5173 188.809 34.506 188.696 34.506C188.594 34.4947 188.481 34.489 188.356 34.489C187.699 34.489 187.166 34.6703 186.758 35.033C186.35 35.3843 186.146 35.9623 186.146 36.767V41H182.916ZM190.42 41V31.786H193.65V41H190.42ZM192.035 30.766C191.445 30.766 190.969 30.6017 190.607 30.273C190.244 29.9443 190.063 29.5363 190.063 29.049C190.063 28.5617 190.244 28.1537 190.607 27.825C190.969 27.4963 191.445 27.332 192.035 27.332C192.624 27.332 193.1 27.4907 193.463 27.808C193.825 28.114 194.007 28.5107 194.007 28.998C194.007 29.508 193.825 29.933 193.463 30.273C193.111 30.6017 192.635 30.766 192.035 30.766ZM200.577 41.153C199.489 41.153 198.537 40.949 197.721 40.541C196.916 40.1217 196.287 39.555 195.834 38.841C195.392 38.1157 195.171 37.294 195.171 36.376C195.171 35.458 195.386 34.642 195.817 33.928C196.259 33.2027 196.865 32.6417 197.636 32.245C198.407 31.837 199.274 31.633 200.237 31.633C201.144 31.633 201.971 31.82 202.719 32.194C203.467 32.5567 204.062 33.095 204.504 33.809C204.946 34.523 205.167 35.39 205.167 36.41C205.167 36.5233 205.161 36.6537 205.15 36.801C205.139 36.9483 205.127 37.0843 205.116 37.209H197.823V35.509H203.399L202.175 35.985C202.186 35.5657 202.107 35.203 201.937 34.897C201.778 34.591 201.552 34.353 201.257 34.183C200.974 34.013 200.639 33.928 200.254 33.928C199.869 33.928 199.529 34.013 199.234 34.183C198.951 34.353 198.73 34.5967 198.571 34.914C198.412 35.22 198.333 35.5827 198.333 36.002V36.495C198.333 36.9483 198.424 37.3393 198.605 37.668C198.798 37.9967 199.07 38.2517 199.421 38.433C199.772 38.603 200.192 38.688 200.679 38.688C201.132 38.688 201.518 38.6257 201.835 38.501C202.164 38.365 202.487 38.161 202.804 37.889L204.504 39.657C204.062 40.1443 203.518 40.5183 202.872 40.779C202.226 41.0283 201.461 41.153 200.577 41.153ZM210.005 41.153C209.223 41.153 208.458 41.0623 207.71 40.881C206.973 40.6997 206.378 40.473 205.925 40.201L206.894 37.991C207.325 38.2517 207.829 38.4613 208.407 38.62C208.985 38.7673 209.552 38.841 210.107 38.841C210.651 38.841 211.025 38.7843 211.229 38.671C211.444 38.5577 211.552 38.4047 211.552 38.212C211.552 38.0307 211.45 37.9003 211.246 37.821C211.053 37.7303 210.793 37.6623 210.464 37.617C210.147 37.5717 209.795 37.5207 209.41 37.464C209.025 37.4073 208.634 37.3337 208.237 37.243C207.852 37.141 207.495 36.9937 207.166 36.801C206.849 36.597 206.594 36.325 206.401 35.985C206.208 35.645 206.112 35.2143 206.112 34.693C206.112 34.1037 206.282 33.5823 206.622 33.129C206.973 32.6643 207.483 32.3017 208.152 32.041C208.821 31.769 209.637 31.633 210.6 31.633C211.246 31.633 211.898 31.701 212.555 31.837C213.224 31.9617 213.785 32.1543 214.238 32.415L213.269 34.608C212.816 34.3473 212.362 34.1717 211.909 34.081C211.456 33.979 211.025 33.928 210.617 33.928C210.073 33.928 209.688 33.9903 209.461 34.115C209.246 34.2397 209.138 34.3927 209.138 34.574C209.138 34.7553 209.234 34.897 209.427 34.999C209.62 35.0897 209.875 35.1633 210.192 35.22C210.521 35.2653 210.878 35.3163 211.263 35.373C211.648 35.4183 212.034 35.492 212.419 35.594C212.816 35.696 213.173 35.849 213.49 36.053C213.819 36.2457 214.079 36.512 214.272 36.852C214.465 37.1807 214.561 37.6057 214.561 38.127C214.561 38.6937 214.385 39.2037 214.034 39.657C213.694 40.1103 213.184 40.473 212.504 40.745C211.835 41.017 211.002 41.153 210.005 41.153Z" fill="black"/>
</svg>
