<svg width="32" height="32" viewBox="0 0 32 32" fill="none" xmlns="http://www.w3.org/2000/svg">
<path d="M7.92265 24.7677H11.8437V18.2326C11.8437 17.8623 11.9692 17.552 12.2202 17.302C12.4711 17.0519 12.7813 16.9264 13.1508 16.9255H18.3789C18.7492 16.9255 19.0598 17.051 19.3108 17.302C19.5617 17.5529 19.6868 17.8631 19.6859 18.2326V24.7677H23.607V13.0045L15.7648 7.12284L7.92265 13.0045V24.7677ZM5.30859 24.7677V13.0045C5.30859 12.5906 5.40139 12.1985 5.58699 11.8281C5.77259 11.4578 6.02833 11.1528 6.35422 10.9132L14.1964 5.0316C14.6538 4.68306 15.1767 4.50879 15.7648 4.50879C16.353 4.50879 16.8758 4.68306 17.3332 5.0316L25.1754 10.9132C25.5022 11.1528 25.7583 11.4578 25.9439 11.8281C26.1295 12.1985 26.2219 12.5906 26.221 13.0045V24.7677C26.221 25.4866 25.9649 26.1022 25.4525 26.6145C24.9401 27.1269 24.325 27.3826 23.607 27.3818H18.3789C18.0085 27.3818 17.6983 27.2563 17.4483 27.0053C17.1982 26.7544 17.0727 26.4442 17.0718 26.0747V19.5396H14.4578V26.0747C14.4578 26.4451 14.3323 26.7557 14.0814 27.0066C13.8304 27.2576 13.5202 27.3826 13.1508 27.3818H7.92265C7.20378 27.3818 6.58861 27.126 6.07713 26.6145C5.56564 26.1031 5.30947 25.4874 5.30859 24.7677Z" fill="#0C0F14"/>
</svg>
