<svg width="33" height="32" viewBox="0 0 33 32" fill="none" xmlns="http://www.w3.org/2000/svg">
<path d="M3.93671 20L13.6898 20.75L12.2523 26.3375C11.8723 28 12.2961 28.9544 13.6517 29.3762L15.8198 29.9919C15.8711 30.0055 15.9255 30.0024 15.9749 29.9831C16.0243 29.9637 16.0663 29.9292 16.0948 29.8844L24.1573 17.2381C24.202 17.1654 24.2646 17.1053 24.3391 17.0636C24.4136 17.022 24.4976 17.0001 24.583 17H31.4367V4H24.0861C23.7636 4.00007 23.4433 3.94816 23.1373 3.84625L18.3686 2.25688C17.8587 2.08682 17.3248 2.00008 16.7873 2H5.66671C4.47921 2 3.69796 2.845 3.46483 4.01L1.43671 12.9012V17.5C1.43671 18.8787 2.56171 19.875 3.93671 20Z" fill="#CA1C1C"/>
<path d="M23.728 17.4474L23.6655 17.5724C23.7559 17.3808 23.9038 17.2222 24.0886 17.1187C23.9438 17.1978 23.8201 17.3105 23.728 17.4474Z" fill="#CA1C1C"/>
</svg>
