<svg width="226" height="117" viewBox="0 0 226 117" fill="none" xmlns="http://www.w3.org/2000/svg">
<g clip-path="url(#clip0_121_272)">
<path d="M40.5393 71.0294V93.6325H26.9821L25.0643 89.2977C25.0643 89.2977 21.8899 94.5614 14.3508 94.5614C6.81166 94.5614 0 90.8458 0 81.2472C0 71.6486 7.14233 67.9331 14.3508 67.9331C20.5673 67.9331 24.2707 70.472 24.2707 70.472V68.2427C24.2707 64.9606 21.6254 63.6601 16.7977 63.6601C12.4329 63.6601 7.93592 64.5271 4.69542 66.0133V53.9996C8.00205 52.5753 13.954 51.7703 20.6995 51.7703C32.6034 51.7703 40.5393 59.5111 40.5393 71.0294ZM16.7977 80.9376C16.7977 83.167 18.3187 84.6532 20.5011 84.6532C23.2126 84.6532 24.7997 82.8573 24.7997 79.8229V79.1417C24.7997 79.1417 22.948 77.0362 20.5011 77.222C18.2526 77.222 16.7977 78.7083 16.7977 80.9376Z" fill="#203C89"/>
<path d="M60.4452 45.1441C60.4452 45.1441 64.0164 39.323 74.796 39.323V52.6991C67.6537 52.6991 63.1567 53.5661 60.9082 58.1486V93.5705H44.6395V40.3138H57.7338L60.4452 45.1441Z" fill="#203C89"/>
<path d="M107.995 19.8781H93.1808V93.5706H76.9122V19.8781H70.0344V9.35065H76.9122V2.53874L93.1808 -0.000244141V9.35065H107.995V19.8781Z" fill="#203C89"/>
<path d="M138.019 42.8529V58.5822C138.019 58.5822 133.654 56.0432 128.628 56.0432C122.213 56.0432 117.848 60.1303 117.848 67.4377C117.848 74.745 122.213 78.8321 128.628 78.8321C133.588 78.8321 138.019 76.2931 138.019 76.2931V91.8986C138.019 91.8986 131.736 94.3137 123.933 94.3137C108.259 94.3137 96.8843 84.4674 96.8843 67.3757C96.8843 50.284 108.259 40.4377 123.933 40.4377C131.736 40.4377 138.019 42.7909 138.019 42.7909V42.8529Z" fill="#203C89"/>
<path d="M140.995 93.8803V38.2704L132.596 39.6328V27.3714L146.881 25.0801H157.263V93.8803H140.995Z" fill="#203C89"/>
<path d="M168.638 93.8803V38.2704L160.239 39.6328V27.3714L174.524 25.0801H184.907V93.8803H168.638Z" fill="#203C89"/>
<path d="M204.151 64.1555L209.31 74.0018L220.883 75.55L212.55 83.2289L214.534 94.0041L204.151 88.9261L193.769 94.0041L195.753 83.2289L187.42 75.55L198.993 74.0018L204.151 64.1555Z" fill="#FAB710"/>
</g>
<path d="M31.9173 99.7215H34.0773V106.562H31.9173V99.7215ZM37.296 103.802V106.562H35.292V99.7215H37.32L39.132 102.482C39.404 102.89 39.612 103.234 39.756 103.514H39.792V102.362V99.7215H41.784V106.562H39.744L37.884 103.682L37.344 102.866H37.308L37.296 103.802ZM42.9438 99.7215H47.8518V101.21H45.1038V102.566H47.3718V103.874H45.1038V106.562H42.9438V99.7215ZM51.917 106.718C50.725 106.718 49.829 106.438 49.229 105.878C48.637 105.31 48.341 104.402 48.341 103.154C48.341 101.93 48.669 101.038 49.325 100.478C49.981 99.9175 50.849 99.6375 51.929 99.6375C54.201 99.6375 55.337 100.77 55.337 103.034C55.337 104.178 55.057 105.078 54.497 105.734C53.945 106.39 53.085 106.718 51.917 106.718ZM51.869 105.302C52.093 105.302 52.281 105.266 52.433 105.194C52.585 105.114 52.705 104.978 52.793 104.786C52.961 104.458 53.045 103.922 53.045 103.178C53.045 102.45 52.961 101.922 52.793 101.594C52.625 101.258 52.317 101.082 51.869 101.066C51.701 101.066 51.525 101.086 51.341 101.126C51.165 101.158 51.053 101.206 51.005 101.27C50.909 101.382 50.833 101.622 50.777 101.99C50.729 102.35 50.705 102.746 50.705 103.178C50.705 103.85 50.769 104.342 50.897 104.654C50.985 104.886 51.109 105.054 51.269 105.158C51.429 105.254 51.629 105.302 51.869 105.302ZM62.52 106.562H60.252L59.844 104.834C59.828 104.77 59.8 104.662 59.76 104.51C59.728 104.35 59.688 104.234 59.64 104.162C59.592 104.082 59.524 104.03 59.436 104.006C59.212 104.014 58.884 104.018 58.452 104.018V106.562H56.292V99.7815C57.26 99.7095 58.164 99.6735 59.004 99.6735C59.764 99.6735 60.38 99.7375 60.852 99.8655C61.324 99.9855 61.676 100.198 61.908 100.502C62.148 100.798 62.268 101.206 62.268 101.726C62.268 102.214 62.156 102.598 61.932 102.878C61.708 103.15 61.348 103.314 60.852 103.37V103.442C61.132 103.466 61.364 103.558 61.548 103.718C61.74 103.87 61.868 104.066 61.932 104.306L62.52 106.562ZM58.452 102.662C58.524 102.67 58.664 102.674 58.872 102.674C59.488 102.674 59.848 102.622 59.952 102.518C60.048 102.422 60.096 102.198 60.096 101.846C60.096 101.518 60.008 101.294 59.832 101.174C59.664 101.054 59.384 100.994 58.992 100.994C58.904 100.994 58.724 101.002 58.452 101.018V102.662ZM72.0729 106.562H70.0569L69.9009 102.794C69.8769 102.05 69.8489 101.486 69.8169 101.102H69.7809C69.6849 101.406 69.5729 101.878 69.4449 102.518L69.3849 102.818L68.5569 106.562H66.5409L65.8449 103.19L65.7249 102.59C65.5569 101.846 65.4409 101.35 65.3769 101.102H65.3409C65.3089 101.502 65.2809 102.154 65.2569 103.058C65.2489 103.114 65.2449 103.202 65.2449 103.322L65.1369 106.562H63.1089L63.3969 99.7215H66.8289L67.4169 102.674L67.5609 103.466C67.6249 103.218 67.6849 102.942 67.7409 102.638L68.2929 99.7215H71.7969L72.0729 106.562ZM73.0718 99.7215H78.0518V101.162H75.2318V102.41H77.6078V103.706H75.2318V105.098H78.0398V106.562H73.0718V99.7215ZM85.1958 106.562H82.9278L82.5198 104.834C82.5038 104.77 82.4758 104.662 82.4358 104.51C82.4038 104.35 82.3638 104.234 82.3158 104.162C82.2678 104.082 82.1998 104.03 82.1118 104.006C81.8878 104.014 81.5598 104.018 81.1278 104.018V106.562H78.9678V99.7815C79.9358 99.7095 80.8398 99.6735 81.6798 99.6735C82.4398 99.6735 83.0558 99.7375 83.5278 99.8655C83.9998 99.9855 84.3518 100.198 84.5838 100.502C84.8238 100.798 84.9438 101.206 84.9438 101.726C84.9438 102.214 84.8318 102.598 84.6078 102.878C84.3838 103.15 84.0238 103.314 83.5278 103.37V103.442C83.8078 103.466 84.0398 103.558 84.2238 103.718C84.4158 103.87 84.5438 104.066 84.6078 104.306L85.1958 106.562ZM81.1278 102.662C81.1998 102.67 81.3398 102.674 81.5478 102.674C82.1638 102.674 82.5238 102.622 82.6278 102.518C82.7238 102.422 82.7718 102.198 82.7718 101.846C82.7718 101.518 82.6838 101.294 82.5078 101.174C82.3398 101.054 82.0598 100.994 81.6678 100.994C81.5798 100.994 81.3998 101.002 81.1278 101.018V102.662ZM87.1887 104.21C87.5327 104.21 87.8327 104.338 88.0887 104.594C88.3527 104.842 88.4847 105.186 88.4847 105.626C88.4847 106.05 88.3407 106.49 88.0527 106.946C87.7647 107.41 87.4207 107.842 87.0207 108.242L86.2047 107.546C86.5007 107.13 86.7567 106.73 86.9727 106.346C86.4927 106.21 86.1447 106.066 85.9287 105.914C85.9047 105.794 85.8927 105.682 85.8927 105.578C85.8927 105.186 86.0047 104.862 86.2287 104.606C86.4607 104.342 86.7807 104.21 87.1887 104.21ZM96.6482 106.334C96.3522 106.462 96.0082 106.554 95.6162 106.61C95.2242 106.666 94.8602 106.694 94.5242 106.694C93.4362 106.694 92.5842 106.41 91.9682 105.842C91.3522 105.274 91.0442 104.402 91.0442 103.226C91.0442 102.026 91.3682 101.13 92.0162 100.538C92.6642 99.9375 93.5762 99.6375 94.7522 99.6375C95.3122 99.6375 95.8962 99.7135 96.5042 99.8655C96.5042 100.026 96.4882 100.266 96.4562 100.586C96.4242 100.898 96.3922 101.118 96.3602 101.246H95.6042C95.0522 101.246 94.6162 101.258 94.2962 101.282C93.9842 101.298 93.7962 101.334 93.7322 101.39C93.6122 101.502 93.5202 101.73 93.4562 102.074C93.3922 102.41 93.3602 102.734 93.3602 103.046C93.3602 103.59 93.4282 104.01 93.5642 104.306C93.7002 104.594 93.8722 104.786 94.0802 104.882C94.2802 104.978 94.6122 105.026 95.0762 105.026C95.4442 105.026 95.9242 104.994 96.5162 104.93L96.6482 106.334ZM100.773 106.718C99.5805 106.718 98.6845 106.438 98.0845 105.878C97.4925 105.31 97.1965 104.402 97.1965 103.154C97.1965 101.93 97.5245 101.038 98.1805 100.478C98.8365 99.9175 99.7045 99.6375 100.785 99.6375C103.057 99.6375 104.193 100.77 104.193 103.034C104.193 104.178 103.913 105.078 103.353 105.734C102.801 106.39 101.941 106.718 100.773 106.718ZM100.725 105.302C100.949 105.302 101.137 105.266 101.289 105.194C101.441 105.114 101.561 104.978 101.649 104.786C101.817 104.458 101.901 103.922 101.901 103.178C101.901 102.45 101.817 101.922 101.649 101.594C101.481 101.258 101.173 101.082 100.725 101.066C100.557 101.066 100.381 101.086 100.197 101.126C100.021 101.158 99.9085 101.206 99.8605 101.27C99.7645 101.382 99.6885 101.622 99.6325 101.99C99.5845 102.35 99.5605 102.746 99.5605 103.178C99.5605 103.85 99.6245 104.342 99.7525 104.654C99.8405 104.886 99.9645 105.054 100.125 105.158C100.285 105.254 100.485 105.302 100.725 105.302ZM113.967 106.562H111.951L111.795 102.794C111.771 102.05 111.743 101.486 111.711 101.102H111.675C111.579 101.406 111.467 101.878 111.339 102.518L111.279 102.818L110.451 106.562H108.435L107.739 103.19L107.619 102.59C107.451 101.846 107.335 101.35 107.271 101.102H107.235C107.203 101.502 107.175 102.154 107.151 103.058C107.143 103.114 107.139 103.202 107.139 103.322L107.031 106.562H105.003L105.291 99.7215H108.723L109.311 102.674L109.455 103.466C109.519 103.218 109.579 102.942 109.635 102.638L110.187 99.7215H113.691L113.967 106.562ZM123.846 106.562H121.83L121.674 102.794C121.65 102.05 121.622 101.486 121.59 101.102H121.554C121.458 101.406 121.346 101.878 121.218 102.518L121.158 102.818L120.33 106.562H118.314L117.618 103.19L117.498 102.59C117.33 101.846 117.214 101.35 117.15 101.102H117.114C117.082 101.502 117.054 102.154 117.03 103.058C117.022 103.114 117.018 103.202 117.018 103.322L116.91 106.562H114.882L115.17 99.7215H118.602L119.19 102.674L119.334 103.466C119.398 103.218 119.458 102.942 119.514 102.638L120.066 99.7215H123.57L123.846 106.562ZM131.301 99.7215V103.55C131.301 104.342 131.213 104.962 131.037 105.41C130.869 105.85 130.549 106.174 130.077 106.382C129.605 106.59 128.917 106.694 128.013 106.694C127.349 106.694 126.789 106.626 126.333 106.49C125.877 106.346 125.513 106.078 125.241 105.686C124.977 105.294 124.845 104.742 124.845 104.03V99.7215H127.005V103.574C127.005 103.998 127.025 104.322 127.065 104.546C127.113 104.762 127.217 104.93 127.377 105.05C127.537 105.162 127.781 105.218 128.109 105.218C128.309 105.218 128.497 105.198 128.673 105.158C128.849 105.118 128.969 105.058 129.033 104.978C129.105 104.882 129.141 104.534 129.141 103.934V99.7215H131.301ZM134.444 103.802V106.562H132.44V99.7215H134.468L136.28 102.482C136.552 102.89 136.76 103.234 136.904 103.514H136.94V102.362V99.7215H138.932V106.562H136.892L135.032 103.682L134.492 102.866H134.456L134.444 103.802ZM140.128 99.7215H142.288V106.562H140.128V99.7215ZM149.611 108.218L147.787 106.634C147.451 106.69 147.135 106.718 146.839 106.718C145.647 106.718 144.751 106.438 144.151 105.878C143.559 105.31 143.263 104.402 143.263 103.154C143.263 101.93 143.591 101.038 144.247 100.478C144.903 99.9175 145.771 99.6375 146.851 99.6375C149.123 99.6375 150.259 100.77 150.259 103.034C150.259 104.274 149.947 105.21 149.323 105.842L150.655 106.766L149.611 108.218ZM146.791 105.302C147.015 105.302 147.203 105.266 147.355 105.194C147.507 105.114 147.627 104.978 147.715 104.786C147.883 104.458 147.967 103.922 147.967 103.178C147.967 102.45 147.883 101.922 147.715 101.594C147.547 101.258 147.239 101.082 146.791 101.066C146.623 101.066 146.447 101.086 146.263 101.126C146.087 101.158 145.975 101.206 145.927 101.27C145.831 101.382 145.755 101.622 145.699 101.99C145.651 102.35 145.627 102.746 145.627 103.178C145.627 103.85 145.691 104.342 145.819 104.654C145.907 104.886 146.031 105.054 146.191 105.158C146.351 105.254 146.551 105.302 146.791 105.302ZM157.668 99.7215V103.55C157.668 104.342 157.58 104.962 157.404 105.41C157.236 105.85 156.916 106.174 156.444 106.382C155.972 106.59 155.284 106.694 154.38 106.694C153.716 106.694 153.156 106.626 152.7 106.49C152.244 106.346 151.88 106.078 151.608 105.686C151.344 105.294 151.212 104.742 151.212 104.03V99.7215H153.372V103.574C153.372 103.998 153.392 104.322 153.432 104.546C153.48 104.762 153.584 104.93 153.744 105.05C153.904 105.162 154.148 105.218 154.476 105.218C154.676 105.218 154.864 105.198 155.04 105.158C155.216 105.118 155.336 105.058 155.4 104.978C155.472 104.882 155.508 104.534 155.508 103.934V99.7215H157.668ZM158.748 99.7215H163.728V101.162H160.908V102.41H163.284V103.706H160.908V105.098H163.716V106.562H158.748V99.7215ZM170.872 106.562H168.604L168.196 104.834C168.18 104.77 168.152 104.662 168.112 104.51C168.08 104.35 168.04 104.234 167.992 104.162C167.944 104.082 167.876 104.03 167.788 104.006C167.564 104.014 167.236 104.018 166.804 104.018V106.562H164.644V99.7815C165.612 99.7095 166.516 99.6735 167.356 99.6735C168.116 99.6735 168.732 99.7375 169.204 99.8655C169.676 99.9855 170.028 100.198 170.26 100.502C170.5 100.798 170.62 101.206 170.62 101.726C170.62 102.214 170.508 102.598 170.284 102.878C170.06 103.15 169.7 103.314 169.204 103.37V103.442C169.484 103.466 169.716 103.558 169.9 103.718C170.092 103.87 170.22 104.066 170.284 104.306L170.872 106.562ZM166.804 102.662C166.876 102.67 167.016 102.674 167.224 102.674C167.84 102.674 168.2 102.622 168.304 102.518C168.4 102.422 168.448 102.198 168.448 101.846C168.448 101.518 168.36 101.294 168.184 101.174C168.016 101.054 167.736 100.994 167.344 100.994C167.256 100.994 167.076 101.002 166.804 101.018V102.662ZM172.864 104.21C173.208 104.21 173.508 104.338 173.764 104.594C174.028 104.842 174.16 105.186 174.16 105.626C174.16 106.05 174.016 106.49 173.728 106.946C173.44 107.41 173.096 107.842 172.696 108.242L171.88 107.546C172.176 107.13 172.432 106.73 172.648 106.346C172.168 106.21 171.82 106.066 171.604 105.914C171.58 105.794 171.568 105.682 171.568 105.578C171.568 105.186 171.68 104.862 171.904 104.606C172.136 104.342 172.456 104.21 172.864 104.21Z" fill="#203C89"/>
<path d="M180.92 105.062H178.928L178.568 106.562H176.36L178.568 99.7215H181.388L183.5 106.562H181.28L180.92 105.062ZM179.912 101.198L179.204 103.73H180.632L179.96 101.198H179.912ZM189.897 102.77V106.19C189.361 106.366 188.853 106.494 188.373 106.574C187.893 106.654 187.489 106.694 187.161 106.694C186.073 106.694 185.221 106.41 184.605 105.842C183.989 105.274 183.681 104.402 183.681 103.226C183.681 102.026 184.005 101.13 184.653 100.538C185.301 99.9375 186.213 99.6375 187.389 99.6375C188.005 99.6375 188.745 99.7295 189.609 99.9135C189.609 100.074 189.593 100.314 189.561 100.634C189.529 100.946 189.497 101.166 189.465 101.294L189.033 101.282C188.505 101.266 188.093 101.258 187.797 101.258C186.909 101.258 186.425 101.31 186.345 101.414C186.217 101.566 186.125 101.802 186.069 102.122C186.021 102.442 185.997 102.75 185.997 103.046C185.997 103.582 186.057 103.998 186.177 104.294C186.297 104.59 186.481 104.798 186.729 104.918C186.977 105.038 187.313 105.098 187.737 105.098H187.785V102.77H189.897ZM190.929 99.7215H193.089V106.562H190.929V99.7215ZM200.532 106.562H198.264L197.856 104.834C197.84 104.77 197.812 104.662 197.772 104.51C197.74 104.35 197.7 104.234 197.652 104.162C197.604 104.082 197.536 104.03 197.448 104.006C197.224 104.014 196.896 104.018 196.464 104.018V106.562H194.304V99.7815C195.272 99.7095 196.176 99.6735 197.016 99.6735C197.776 99.6735 198.392 99.7375 198.864 99.8655C199.336 99.9855 199.688 100.198 199.92 100.502C200.16 100.798 200.28 101.206 200.28 101.726C200.28 102.214 200.168 102.598 199.944 102.878C199.72 103.15 199.36 103.314 198.864 103.37V103.442C199.144 103.466 199.376 103.558 199.56 103.718C199.752 103.87 199.88 104.066 199.944 104.306L200.532 106.562ZM196.464 102.662C196.536 102.67 196.676 102.674 196.884 102.674C197.5 102.674 197.86 102.622 197.964 102.518C198.06 102.422 198.108 102.198 198.108 101.846C198.108 101.518 198.02 101.294 197.844 101.174C197.676 101.054 197.396 100.994 197.004 100.994C196.916 100.994 196.736 101.002 196.464 101.018V102.662Z" fill="#FAB710"/>
<defs>
<clipPath id="clip0_121_272">
<rect width="220.883" height="94.5616" fill="white"/>
</clipPath>
</defs>
</svg>
