<svg width="265" height="146" viewBox="0 0 265 146" fill="none" xmlns="http://www.w3.org/2000/svg">
<g clip-path="url(#clip0_119_1454)">
<path d="M47.535 88.6353V116.841H31.6383L29.3895 111.432C29.3895 111.432 25.6674 118 16.8272 118C7.98713 118 0 113.364 0 101.386C0 89.408 8.37485 84.7715 16.8272 84.7715C24.1165 84.7715 28.459 87.9398 28.459 87.9398V85.1579C28.459 81.0623 25.3572 79.4395 19.6964 79.4395C14.5784 79.4395 9.30539 80.5213 5.50569 82.376V67.3845C9.38293 65.6071 16.362 64.6025 24.2716 64.6025C38.2296 64.6025 47.535 74.262 47.535 88.6353ZM19.6964 100.999C19.6964 103.781 21.4799 105.636 24.0389 105.636C27.2183 105.636 29.0793 103.395 29.0793 99.6084V98.7584C29.0793 98.7584 26.9081 96.131 24.0389 96.3629C21.4024 96.3629 19.6964 98.2175 19.6964 100.999Z" fill="#203C89"/>
<path d="M70.876 56.3342C70.876 56.3342 75.0635 49.0703 87.7033 49.0703V65.7619C79.3284 65.7619 74.0554 66.8437 71.4189 72.5621V116.764H52.3428V50.3067H67.6967L70.876 56.3342Z" fill="#203C89"/>
<path d="M126.631 24.8055H109.261V116.764H90.1847V24.8055H82.1201V11.6686H90.1847V3.1683L109.261 0V11.6686H126.631V24.8055Z" fill="#203C89"/>
<path d="M161.836 53.4747V73.1027C161.836 73.1027 156.718 69.9344 150.825 69.9344C143.303 69.9344 138.185 75.0346 138.185 84.1531C138.185 93.2717 143.303 98.3719 150.825 98.3719C156.641 98.3719 161.836 95.2036 161.836 95.2036V114.677C161.836 114.677 154.469 117.691 145.319 117.691C126.941 117.691 113.603 105.404 113.603 84.0759C113.603 62.7478 126.941 50.4609 145.319 50.4609C154.469 50.4609 161.836 53.3974 161.836 53.3974V53.4747Z" fill="#203C89"/>
<path d="M165.326 117.15V47.7566L155.478 49.4567V34.1561L172.227 31.2969H184.402V117.15H165.326Z" fill="#203C89"/>
<path d="M197.74 117.15V47.7566L187.891 49.4567V34.1561L204.641 31.2969H216.816V117.15H197.74Z" fill="#203C89"/>
<path d="M239.381 80.0576L245.43 92.3445L259 94.2763L249.229 103.859L251.556 117.305L239.381 110.968L227.207 117.305L229.533 103.859L219.762 94.2763L233.333 92.3445L239.381 80.0576Z" fill="#FAB710"/>
</g>
<path d="M51.9323 123.16H54.0923V130H51.9323V123.16ZM57.311 127.24V130H55.307V123.16H57.335L59.147 125.92C59.419 126.328 59.627 126.672 59.771 126.952H59.807V125.8V123.16H61.799V130H59.759L57.899 127.12L57.359 126.304H57.323L57.311 127.24ZM62.9588 123.16H67.8668V124.648H65.1188V126.004H67.3868V127.312H65.1188V130H62.9588V123.16ZM71.9321 130.156C70.7401 130.156 69.8441 129.876 69.2441 129.316C68.6521 128.748 68.3561 127.84 68.3561 126.592C68.3561 125.368 68.6841 124.476 69.3401 123.916C69.9961 123.356 70.8641 123.076 71.9441 123.076C74.2161 123.076 75.3521 124.208 75.3521 126.472C75.3521 127.616 75.0721 128.516 74.5121 129.172C73.9601 129.828 73.1001 130.156 71.9321 130.156ZM71.8841 128.74C72.1081 128.74 72.2961 128.704 72.4481 128.632C72.6001 128.552 72.7201 128.416 72.8081 128.224C72.9761 127.896 73.0601 127.36 73.0601 126.616C73.0601 125.888 72.9761 125.36 72.8081 125.032C72.6401 124.696 72.3321 124.52 71.8841 124.504C71.7161 124.504 71.5401 124.524 71.3561 124.564C71.1801 124.596 71.0681 124.644 71.0201 124.708C70.9241 124.82 70.8481 125.06 70.7921 125.428C70.7441 125.788 70.7201 126.184 70.7201 126.616C70.7201 127.288 70.7841 127.78 70.9121 128.092C71.0001 128.324 71.1241 128.492 71.2841 128.596C71.4441 128.692 71.6441 128.74 71.8841 128.74ZM82.535 130H80.267L79.859 128.272C79.843 128.208 79.815 128.1 79.775 127.948C79.743 127.788 79.703 127.672 79.655 127.6C79.607 127.52 79.539 127.468 79.451 127.444C79.227 127.452 78.899 127.456 78.467 127.456V130H76.307V123.22C77.275 123.148 78.179 123.112 79.019 123.112C79.779 123.112 80.395 123.176 80.867 123.304C81.339 123.424 81.691 123.636 81.923 123.94C82.163 124.236 82.283 124.644 82.283 125.164C82.283 125.652 82.171 126.036 81.947 126.316C81.723 126.588 81.363 126.752 80.867 126.808V126.88C81.147 126.904 81.379 126.996 81.563 127.156C81.755 127.308 81.883 127.504 81.947 127.744L82.535 130ZM78.467 126.1C78.539 126.108 78.679 126.112 78.887 126.112C79.503 126.112 79.863 126.06 79.967 125.956C80.063 125.86 80.111 125.636 80.111 125.284C80.111 124.956 80.023 124.732 79.847 124.612C79.679 124.492 79.399 124.432 79.007 124.432C78.919 124.432 78.739 124.44 78.467 124.456V126.1ZM92.088 130H90.072L89.916 126.232C89.892 125.488 89.864 124.924 89.832 124.54H89.796C89.7 124.844 89.588 125.316 89.46 125.956L89.4 126.256L88.572 130H86.556L85.86 126.628L85.74 126.028C85.572 125.284 85.456 124.788 85.392 124.54H85.356C85.324 124.94 85.296 125.592 85.272 126.496C85.264 126.552 85.26 126.64 85.26 126.76L85.152 130H83.124L83.412 123.16H86.844L87.432 126.112L87.576 126.904C87.64 126.656 87.7 126.38 87.756 126.076L88.308 123.16H91.812L92.088 130ZM93.0869 123.16H98.0669V124.6H95.2469V125.848H97.6229V127.144H95.2469V128.536H98.0549V130H93.0869V123.16ZM105.211 130H102.943L102.535 128.272C102.519 128.208 102.491 128.1 102.451 127.948C102.419 127.788 102.379 127.672 102.331 127.6C102.283 127.52 102.215 127.468 102.127 127.444C101.903 127.452 101.575 127.456 101.143 127.456V130H98.9828V123.22C99.9508 123.148 100.855 123.112 101.695 123.112C102.455 123.112 103.071 123.176 103.543 123.304C104.015 123.424 104.367 123.636 104.599 123.94C104.839 124.236 104.959 124.644 104.959 125.164C104.959 125.652 104.847 126.036 104.623 126.316C104.399 126.588 104.039 126.752 103.543 126.808V126.88C103.823 126.904 104.055 126.996 104.239 127.156C104.431 127.308 104.559 127.504 104.623 127.744L105.211 130ZM101.143 126.1C101.215 126.108 101.355 126.112 101.563 126.112C102.179 126.112 102.539 126.06 102.643 125.956C102.739 125.86 102.787 125.636 102.787 125.284C102.787 124.956 102.699 124.732 102.523 124.612C102.355 124.492 102.075 124.432 101.683 124.432C101.595 124.432 101.415 124.44 101.143 124.456V126.1ZM107.204 127.648C107.548 127.648 107.848 127.776 108.104 128.032C108.368 128.28 108.5 128.624 108.5 129.064C108.5 129.488 108.356 129.928 108.068 130.384C107.78 130.848 107.436 131.28 107.036 131.68L106.22 130.984C106.516 130.568 106.772 130.168 106.988 129.784C106.508 129.648 106.16 129.504 105.944 129.352C105.92 129.232 105.908 129.12 105.908 129.016C105.908 128.624 106.02 128.3 106.244 128.044C106.476 127.78 106.796 127.648 107.204 127.648ZM116.663 129.772C116.367 129.9 116.023 129.992 115.631 130.048C115.239 130.104 114.875 130.132 114.539 130.132C113.451 130.132 112.599 129.848 111.983 129.28C111.367 128.712 111.059 127.84 111.059 126.664C111.059 125.464 111.383 124.568 112.031 123.976C112.679 123.376 113.591 123.076 114.767 123.076C115.327 123.076 115.911 123.152 116.519 123.304C116.519 123.464 116.503 123.704 116.471 124.024C116.439 124.336 116.407 124.556 116.375 124.684H115.619C115.067 124.684 114.631 124.696 114.311 124.72C113.999 124.736 113.811 124.772 113.747 124.828C113.627 124.94 113.535 125.168 113.471 125.512C113.407 125.848 113.375 126.172 113.375 126.484C113.375 127.028 113.443 127.448 113.579 127.744C113.715 128.032 113.887 128.224 114.095 128.32C114.295 128.416 114.627 128.464 115.091 128.464C115.459 128.464 115.939 128.432 116.531 128.368L116.663 129.772ZM120.788 130.156C119.596 130.156 118.7 129.876 118.1 129.316C117.508 128.748 117.212 127.84 117.212 126.592C117.212 125.368 117.54 124.476 118.196 123.916C118.852 123.356 119.72 123.076 120.8 123.076C123.072 123.076 124.208 124.208 124.208 126.472C124.208 127.616 123.928 128.516 123.368 129.172C122.816 129.828 121.956 130.156 120.788 130.156ZM120.74 128.74C120.964 128.74 121.152 128.704 121.304 128.632C121.456 128.552 121.576 128.416 121.664 128.224C121.832 127.896 121.916 127.36 121.916 126.616C121.916 125.888 121.832 125.36 121.664 125.032C121.496 124.696 121.188 124.52 120.74 124.504C120.572 124.504 120.396 124.524 120.212 124.564C120.036 124.596 119.924 124.644 119.876 124.708C119.78 124.82 119.704 125.06 119.648 125.428C119.6 125.788 119.576 126.184 119.576 126.616C119.576 127.288 119.64 127.78 119.768 128.092C119.856 128.324 119.98 128.492 120.14 128.596C120.3 128.692 120.5 128.74 120.74 128.74ZM133.983 130H131.967L131.811 126.232C131.787 125.488 131.759 124.924 131.727 124.54H131.691C131.595 124.844 131.483 125.316 131.355 125.956L131.295 126.256L130.467 130H128.451L127.755 126.628L127.635 126.028C127.467 125.284 127.351 124.788 127.287 124.54H127.251C127.219 124.94 127.191 125.592 127.167 126.496C127.159 126.552 127.155 126.64 127.155 126.76L127.047 130H125.019L125.307 123.16H128.739L129.327 126.112L129.471 126.904C129.535 126.656 129.595 126.38 129.651 126.076L130.203 123.16H133.707L133.983 130ZM143.861 130H141.845L141.689 126.232C141.665 125.488 141.637 124.924 141.605 124.54H141.569C141.473 124.844 141.361 125.316 141.233 125.956L141.173 126.256L140.345 130H138.329L137.633 126.628L137.513 126.028C137.345 125.284 137.229 124.788 137.165 124.54H137.129C137.097 124.94 137.069 125.592 137.045 126.496C137.037 126.552 137.033 126.64 137.033 126.76L136.925 130H134.897L135.185 123.16H138.617L139.205 126.112L139.349 126.904C139.413 126.656 139.473 126.38 139.529 126.076L140.081 123.16H143.585L143.861 130ZM151.316 123.16V126.988C151.316 127.78 151.228 128.4 151.052 128.848C150.884 129.288 150.564 129.612 150.092 129.82C149.62 130.028 148.932 130.132 148.028 130.132C147.364 130.132 146.804 130.064 146.348 129.928C145.892 129.784 145.528 129.516 145.256 129.124C144.992 128.732 144.86 128.18 144.86 127.468V123.16H147.02V127.012C147.02 127.436 147.04 127.76 147.08 127.984C147.128 128.2 147.232 128.368 147.392 128.488C147.552 128.6 147.796 128.656 148.124 128.656C148.324 128.656 148.512 128.636 148.688 128.596C148.864 128.556 148.984 128.496 149.048 128.416C149.12 128.32 149.156 127.972 149.156 127.372V123.16H151.316ZM154.459 127.24V130H152.455V123.16H154.483L156.295 125.92C156.567 126.328 156.775 126.672 156.919 126.952H156.955V125.8V123.16H158.947V130H156.907L155.047 127.12L154.507 126.304H154.471L154.459 127.24ZM160.143 123.16H162.303V130H160.143V123.16ZM169.626 131.656L167.802 130.072C167.466 130.128 167.15 130.156 166.854 130.156C165.662 130.156 164.766 129.876 164.166 129.316C163.574 128.748 163.278 127.84 163.278 126.592C163.278 125.368 163.606 124.476 164.262 123.916C164.918 123.356 165.786 123.076 166.866 123.076C169.138 123.076 170.274 124.208 170.274 126.472C170.274 127.712 169.962 128.648 169.338 129.28L170.67 130.204L169.626 131.656ZM166.806 128.74C167.03 128.74 167.218 128.704 167.37 128.632C167.522 128.552 167.642 128.416 167.73 128.224C167.898 127.896 167.982 127.36 167.982 126.616C167.982 125.888 167.898 125.36 167.73 125.032C167.562 124.696 167.254 124.52 166.806 124.504C166.638 124.504 166.462 124.524 166.278 124.564C166.102 124.596 165.99 124.644 165.942 124.708C165.846 124.82 165.77 125.06 165.714 125.428C165.666 125.788 165.642 126.184 165.642 126.616C165.642 127.288 165.706 127.78 165.834 128.092C165.922 128.324 166.046 128.492 166.206 128.596C166.366 128.692 166.566 128.74 166.806 128.74ZM177.684 123.16V126.988C177.684 127.78 177.596 128.4 177.42 128.848C177.252 129.288 176.932 129.612 176.46 129.82C175.988 130.028 175.3 130.132 174.396 130.132C173.732 130.132 173.172 130.064 172.716 129.928C172.26 129.784 171.896 129.516 171.624 129.124C171.36 128.732 171.228 128.18 171.228 127.468V123.16H173.388V127.012C173.388 127.436 173.408 127.76 173.448 127.984C173.496 128.2 173.6 128.368 173.76 128.488C173.92 128.6 174.164 128.656 174.492 128.656C174.692 128.656 174.88 128.636 175.056 128.596C175.232 128.556 175.352 128.496 175.416 128.416C175.488 128.32 175.524 127.972 175.524 127.372V123.16H177.684ZM178.763 123.16H183.743V124.6H180.923V125.848H183.299V127.144H180.923V128.536H183.731V130H178.763V123.16ZM190.887 130H188.619L188.211 128.272C188.195 128.208 188.167 128.1 188.127 127.948C188.095 127.788 188.055 127.672 188.007 127.6C187.959 127.52 187.891 127.468 187.803 127.444C187.579 127.452 187.251 127.456 186.819 127.456V130H184.659V123.22C185.627 123.148 186.531 123.112 187.371 123.112C188.131 123.112 188.747 123.176 189.219 123.304C189.691 123.424 190.043 123.636 190.275 123.94C190.515 124.236 190.635 124.644 190.635 125.164C190.635 125.652 190.523 126.036 190.299 126.316C190.075 126.588 189.715 126.752 189.219 126.808V126.88C189.499 126.904 189.731 126.996 189.915 127.156C190.107 127.308 190.235 127.504 190.299 127.744L190.887 130ZM186.819 126.1C186.891 126.108 187.031 126.112 187.239 126.112C187.855 126.112 188.215 126.06 188.319 125.956C188.415 125.86 188.463 125.636 188.463 125.284C188.463 124.956 188.375 124.732 188.199 124.612C188.031 124.492 187.751 124.432 187.359 124.432C187.271 124.432 187.091 124.44 186.819 124.456V126.1ZM192.88 127.648C193.224 127.648 193.524 127.776 193.78 128.032C194.044 128.28 194.176 128.624 194.176 129.064C194.176 129.488 194.032 129.928 193.744 130.384C193.456 130.848 193.112 131.28 192.712 131.68L191.896 130.984C192.192 130.568 192.448 130.168 192.664 129.784C192.184 129.648 191.836 129.504 191.62 129.352C191.596 129.232 191.584 129.12 191.584 129.016C191.584 128.624 191.696 128.3 191.92 128.044C192.152 127.78 192.472 127.648 192.88 127.648Z" fill="#203C89"/>
<path d="M200.935 128.5H198.943L198.583 130H196.375L198.583 123.16H201.403L203.515 130H201.295L200.935 128.5ZM199.927 124.636L199.219 127.168H200.647L199.975 124.636H199.927ZM209.912 126.208V129.628C209.376 129.804 208.868 129.932 208.388 130.012C207.908 130.092 207.504 130.132 207.176 130.132C206.088 130.132 205.236 129.848 204.62 129.28C204.004 128.712 203.696 127.84 203.696 126.664C203.696 125.464 204.02 124.568 204.668 123.976C205.316 123.376 206.228 123.076 207.404 123.076C208.02 123.076 208.76 123.168 209.624 123.352C209.624 123.512 209.608 123.752 209.576 124.072C209.544 124.384 209.512 124.604 209.48 124.732L209.048 124.72C208.52 124.704 208.108 124.696 207.812 124.696C206.924 124.696 206.44 124.748 206.36 124.852C206.232 125.004 206.14 125.24 206.084 125.56C206.036 125.88 206.012 126.188 206.012 126.484C206.012 127.02 206.072 127.436 206.192 127.732C206.312 128.028 206.496 128.236 206.744 128.356C206.992 128.476 207.328 128.536 207.752 128.536H207.8V126.208H209.912ZM210.944 123.16H213.104V130H210.944V123.16ZM220.547 130H218.279L217.871 128.272C217.855 128.208 217.827 128.1 217.787 127.948C217.755 127.788 217.715 127.672 217.667 127.6C217.619 127.52 217.551 127.468 217.463 127.444C217.239 127.452 216.911 127.456 216.479 127.456V130H214.319V123.22C215.287 123.148 216.191 123.112 217.031 123.112C217.791 123.112 218.407 123.176 218.879 123.304C219.351 123.424 219.703 123.636 219.935 123.94C220.175 124.236 220.295 124.644 220.295 125.164C220.295 125.652 220.183 126.036 219.959 126.316C219.735 126.588 219.375 126.752 218.879 126.808V126.88C219.159 126.904 219.391 126.996 219.575 127.156C219.767 127.308 219.895 127.504 219.959 127.744L220.547 130ZM216.479 126.1C216.551 126.108 216.691 126.112 216.899 126.112C217.515 126.112 217.875 126.06 217.979 125.956C218.075 125.86 218.123 125.636 218.123 125.284C218.123 124.956 218.035 124.732 217.859 124.612C217.691 124.492 217.411 124.432 217.019 124.432C216.931 124.432 216.751 124.44 216.479 124.456V126.1Z" fill="#FAB710"/>
<defs>
<clipPath id="clip0_119_1454">
<rect width="259" height="118" fill="white"/>
</clipPath>
</defs>
</svg>
