<svg width="32" height="32" viewBox="0 0 32 32" fill="none" xmlns="http://www.w3.org/2000/svg">
<path d="M15.9717 29.5292C24.0565 29.5292 30.6105 22.9752 30.6105 14.8904C30.6105 6.80552 24.0565 0.251465 15.9717 0.251465C7.88682 0.251465 1.33276 6.80552 1.33276 14.8904C1.33276 22.9752 7.88682 29.5292 15.9717 29.5292Z" fill="#FFCB4C"/>
<path d="M12.9784 18.3502C12.8487 18.2489 12.7546 18.109 12.7098 17.9507C12.6811 17.8596 12.6717 17.7635 12.6822 17.6686C12.6926 17.5737 12.7227 17.482 12.7705 17.3993C12.8182 17.3167 12.8827 17.2448 12.9597 17.1884C13.0367 17.132 13.1246 17.0921 13.2178 17.0715C17.1169 16.1923 19.7425 18.2452 19.8535 18.333C20.1842 18.5965 20.2488 19.0606 20.0025 19.3706C19.7562 19.6789 19.2895 19.7159 18.9597 19.4542C18.865 19.3818 16.7871 17.7982 13.6363 18.5087C13.5218 18.5331 13.4032 18.5315 13.2894 18.5041C13.1755 18.4767 13.0693 18.4241 12.9784 18.3502Z" fill="#65471B"/>
<path d="M11.7686 12.145C12.7792 12.145 13.5984 11.121 13.5984 9.85791C13.5984 8.59478 12.7792 7.5708 11.7686 7.5708C10.758 7.5708 9.93872 8.59478 9.93872 9.85791C9.93872 11.121 10.758 12.145 11.7686 12.145Z" fill="#65471B"/>
<path d="M21.4612 13.0596C22.4718 13.0596 23.2911 12.0356 23.2911 10.7725C23.2911 9.50933 22.4718 8.48535 21.4612 8.48535C20.4506 8.48535 19.6314 9.50933 19.6314 10.7725C19.6314 12.0356 20.4506 13.0596 21.4612 13.0596Z" fill="#65471B"/>
<path d="M15.3482 30.5031C15.3482 30.5031 16.4375 30.1492 16.5787 29.3389C16.7277 28.5019 16.0414 28.334 16.0414 28.334C16.0414 28.334 16.9378 28.1548 17.0506 27.1491C17.1565 26.201 16.3092 25.9754 16.3092 25.9754C16.3092 25.9754 17.1445 25.6309 17.1841 24.6501C17.2168 23.8243 16.3273 23.4205 16.3273 23.4205C16.3273 23.4205 20.6656 22.369 21.1116 22.2657C21.5559 22.1624 22.2483 21.7361 22.0321 20.807C21.8177 19.877 20.9954 19.8443 20.5708 19.9433C20.1463 20.0423 14.7635 21.2918 12.9069 21.7241L11.6678 22.0117C11.2028 22.121 10.9918 21.9169 11.3199 21.5708C11.7574 21.1092 12.0372 20.5986 12.1345 19.7513C12.237 18.86 11.9348 17.7595 11.7617 17.3324C11.4396 16.5393 10.8963 15.9124 10.2685 15.6971C9.28942 15.3613 8.59364 15.9736 8.94067 17.0413C9.46078 18.6378 9.11978 19.9476 8.22336 20.7381C6.1145 22.5955 5.1337 23.9199 5.78642 26.7426C6.49942 29.8211 9.5555 31.8025 12.634 31.0895L15.3482 30.5031Z" fill="#F19020"/>
<path d="M8.47654 5.70488C8.33175 5.62756 8.21422 5.50762 8.13985 5.36129C8.09498 5.27699 8.06813 5.18427 8.061 5.08904C8.05388 4.9938 8.06663 4.89813 8.09845 4.80808C8.13028 4.71804 8.18047 4.6356 8.24586 4.56599C8.31124 4.49638 8.39039 4.44113 8.47827 4.40374C12.1518 2.82704 15.108 4.36671 15.232 4.43301C15.6048 4.63193 15.7555 5.07626 15.5687 5.42674C15.3827 5.77549 14.9314 5.8969 14.5586 5.70057C14.4527 5.64632 12.1199 4.46746 9.15252 5.74104C9.04417 5.78532 8.92735 5.80505 8.81047 5.79879C8.69359 5.79254 8.57955 5.76047 8.47654 5.70488ZM18.9261 8.93404C18.787 8.84751 18.678 8.71995 18.6144 8.56893C18.5752 8.4817 18.5546 8.38725 18.5539 8.29162C18.5531 8.19598 18.5724 8.10124 18.6103 8.01343C18.6482 7.92562 18.704 7.84667 18.774 7.7816C18.8441 7.71653 18.927 7.66677 19.0174 7.63549C22.7899 6.31282 25.635 8.04882 25.7539 8.12374C26.1112 8.34763 26.2318 8.80143 26.0225 9.13813C25.8142 9.47396 25.3543 9.56438 24.997 9.34307C24.8936 9.28107 22.6487 7.94721 19.6004 9.01671C19.4889 9.05379 19.3706 9.06561 19.2539 9.05131C19.1373 9.03701 19.0253 8.99696 18.9261 8.93404Z" fill="#65471B"/>
</svg>
