<svg width="25" height="25" viewBox="0 0 25 25" fill="none" xmlns="http://www.w3.org/2000/svg">
<path d="M12.5 0.850098C14.1576 0.850098 15.7473 1.48224 16.9194 2.60746C18.0915 3.73267 18.75 5.2588 18.75 6.8501C18.75 8.4414 18.0915 9.96752 16.9194 11.0927C15.7473 12.218 14.1576 12.8501 12.5 12.8501C10.8424 12.8501 9.25268 12.218 8.08058 11.0927C6.90848 9.96752 6.25 8.4414 6.25 6.8501C6.25 5.2588 6.90848 3.73267 8.08058 2.60746C9.25268 1.48224 10.8424 0.850098 12.5 0.850098ZM12.5 15.8501C19.4062 15.8501 25 18.5351 25 21.8501V24.8501H0V21.8501C0 18.5351 5.59375 15.8501 12.5 15.8501Z" fill="black"/>
</svg>
